HIERARCHY
ROOT Hips
{
	OFFSET 0.000000 0.000000 0.000000
	CHANNELS 6 Xposition Yposition Zposition Zrotation Yrotation Xrotation 
	JOINT LowerBack
	{
		OFFSET 0.000000 0.000000 0.000000
		CHANNELS 3 Zrotation Yrotation Xrotation
		JOINT Spine
		{
			OFFSET 0.028270 2.035590 -0.193380
			CHANNELS 3 Zrotation Yrotation Xrotation
			JOINT Spine1
			{
				OFFSET 0.056720 2.048850 -0.042750
				CHANNELS 3 Zrotation Yrotation Xrotation
				JOINT Neck
				{
					OFFSET 0.000000 0.000000 0.000000
					CHANNELS 3 Zrotation Yrotation Xrotation
					JOINT Neck1
					{
						OFFSET -0.054170 1.746240 0.172020
						CHANNELS 3 Zrotation Yrotation Xrotation
						JOINT Head
						{
							OFFSET 0.104070 1.761360 -0.123970
							CHANNELS 3 Zrotation Yrotation Xrotation
							End Site
							{
								OFFSET 0.000000 0.000000 0.000000
							}
						}
					}
				}
				JOINT LeftShoulder
				{
					OFFSET 0.000000 0.000000 0.000000
					CHANNELS 3 Zrotation Yrotation Xrotation
					JOINT LeftArm
					{
						OFFSET 3.362410 1.200890 -0.311210
						CHANNELS 3 Zrotation Yrotation Xrotation
						JOINT LeftForeArm
						{
							OFFSET 4.983000 -0.000000 -0.000000
							CHANNELS 3 Zrotation Yrotation Xrotation
							JOINT LeftHand
							{
								OFFSET 3.483560 -0.000000 -0.000000
								CHANNELS 3 Zrotation Yrotation Xrotation
								JOINT LeftFingerBase
								{
									OFFSET 0.000000 0.000000 0.000000
									CHANNELS 3 Zrotation Yrotation Xrotation
									JOINT LeftHandIndex1
									{
										OFFSET 0.715260 -0.000000 -0.000000
										CHANNELS 3 Zrotation Yrotation Xrotation
										End Site
										{
											OFFSET 0.000000 0.000000 0.000000
										}
									}
								}
								JOINT LThumb
								{
									OFFSET 0.000000 0.000000 0.000000
									CHANNELS 3 Zrotation Yrotation Xrotation
									End Site
									{
										OFFSET 0.000000 0.000000 0.000000
									}
								}
							}
						}
					}
				}
				JOINT RightShoulder
				{
					OFFSET 0.000000 0.000000 0.000000
					CHANNELS 3 Zrotation Yrotation Xrotation
					JOINT RightArm
					{
						OFFSET -3.136600 1.374050 -0.404650
						CHANNELS 3 Zrotation Yrotation Xrotation
						JOINT RightForeArm
						{
							OFFSET -5.241900 -0.000000 -0.000000
							CHANNELS 3 Zrotation Yrotation Xrotation
							JOINT RightHand
							{
								OFFSET -3.444170 -0.000000 -0.000000
								CHANNELS 3 Zrotation Yrotation Xrotation
								JOINT RightFingerBase
								{
									OFFSET 0.000000 0.000000 0.000000
									CHANNELS 3 Zrotation Yrotation Xrotation
									JOINT RightHandIndex1
									{
										OFFSET -0.622530 -0.000000 -0.000000
										CHANNELS 3 Zrotation Yrotation Xrotation
										End Site
										{
											OFFSET 0.000000 0.000000 0.000000
										}
									}
								}
								JOINT RThumb
								{
									OFFSET 0.000000 0.000000 0.000000
									CHANNELS 3 Zrotation Yrotation Xrotation
									End Site
									{
										OFFSET 0.000000 0.000000 0.000000
									}
								}
							}
						}
					}
				}
			}
		}
	}
}
}
MOTION
Frames: 15
Frame Time: 0.008333
-0.268839 17.107923 -0.682015 -26.614695 83.351963 -27.605695 -1.496447 1.078767 -2.697850 -0.609109 1.116488 -2.653583 -3.802224 1.039290 3.438314 8.543219 -13.312498 -10.616313 -0.408034 0.013361 -0.785603 0.000000 0.000000 0.000000 -6.440459 31.325873 1.454945 -80.681187 23.446512 -13.323302 -4.308074 -9.963580 -0.017876 -3.045046 7.330384 -0.191877 -0.095616 -0.097297 -0.000000 0.000000 0.000000 0.000000 0.000000 0.000000 0.000000 5.215501 -7.899966 0.668322 34.046489 12.520949 -0.178615 1.676282 39.907006 0.009397 0.659330 6.257801 0.034398 0.057873 -0.183465 0.000000 0.000000 0.000000 0.000000 0.000000 0.000000 0.000000 
-0.112713 17.098134 -0.710149 -28.113856 83.733521 -29.135850 -1.806393 0.918568 -2.608207 -0.672739 0.980189 -2.649192 -3.831603 0.903097 3.399289 8.698766 -13.364027 -10.642015 -0.426352 0.012552 -0.793465 0.000000 0.000000 0.000000 -6.377775 31.018830 1.462911 -80.489077 22.981903 -13.188541 -4.298073 -9.897212 -0.017472 -2.953227 7.260130 -0.184069 -0.095660 -0.094865 -0.000000 0.000000 0.000000 0.000000 0.000000 0.000000 0.000000 5.411604 -7.999652 0.664637 34.473594 12.182915 -0.347788 1.704617 39.960514 0.009540 0.623196 6.256805 0.032208 0.060248 -0.181662 0.000000 0.000000 0.000000 0.000000 0.000000 0.000000 0.000000 
0.040055 17.087934 -0.738750 -30.182590 84.150942 -31.225159 -2.090682 0.748041 -2.495635 -0.730039 0.832240 -2.641143 -3.858077 0.755440 3.355842 8.835458 -13.420223 -10.669397 -0.446351 0.011647 -0.801785 0.000000 0.000000 0.000000 -6.302780 30.663979 1.472449 -80.267928 22.433931 -13.015640 -4.283849 -9.855240 -0.016899 -2.812222 7.139440 -0.171957 -0.095898 -0.091774 -0.000000 0.000000 0.000000 0.000000 0.000000 0.000000 0.000000 5.588987 -8.107365 0.659045 34.969341 11.814208 -0.502698 1.734109 40.025809 0.009673 0.565576 6.270705 0.028919 0.062936 -0.179964 0.000000 0.000000 0.000000 0.000000 0.000000 0.000000 0.000000 
0.189837 17.077602 -0.768267 -33.035071 84.590638 -34.094786 -2.337560 0.570389 -2.358594 -0.779084 0.675006 -2.628192 -3.882837 0.598865 3.311354 8.955641 -13.492732 -10.698815 -0.468228 0.010636 -0.810707 0.000000 0.000000 0.000000 -6.214353 30.274279 1.481612 -80.018437 21.795009 -12.820066 -4.265366 -9.822655 -0.016161 -2.617042 6.969388 -0.155741 -0.096346 -0.088051 -0.000000 0.000000 0.000000 0.000000 0.000000 0.000000 0.000000 5.757659 -8.235821 0.651591 35.513614 11.431087 -0.621478 1.764370 40.093428 0.009790 0.486911 6.299613 0.024431 0.065882 -0.178260 0.000000 0.000000 0.000000 0.000000 0.000000 0.000000 0.000000 
0.337181 17.067560 -0.799758 -37.093026 85.017358 -38.160092 -2.508969 0.392543 -2.209589 -0.812687 0.512381 -2.614292 -3.907412 0.437059 3.259791 9.048799 -13.555284 -10.720311 -0.493798 0.009155 -0.817272 0.000000 0.000000 0.000000 -6.136689 29.832998 1.488557 -79.738192 21.110494 -12.548581 -4.240694 -9.858555 -0.015318 -2.372570 6.777270 -0.136722 -0.096795 -0.084000 -0.000000 0.000000 0.000000 0.000000 0.000000 0.000000 0.000000 5.903224 -8.355224 0.643235 36.110348 10.983279 -0.735848 1.797237 40.177772 0.009946 0.416109 6.336819 0.020343 0.068791 -0.176458 0.000000 0.000000 0.000000 0.000000 0.000000 0.000000 0.000000 
0.482547 17.058159 -0.833249 -42.479930 85.422349 -43.556653 -2.623309 0.212940 -2.044865 -0.834666 0.344226 -2.596272 -3.933016 0.270053 3.210600 9.128319 -13.637280 -10.739332 -0.522919 0.007336 -0.823151 0.000000 0.000000 0.000000 -6.056960 29.374389 1.490952 -79.426385 20.344688 -12.252520 -4.211903 -9.907530 -0.014376 -2.079421 6.553477 -0.115099 -0.097359 -0.079529 -0.000000 0.000000 0.000000 0.000000 0.000000 0.000000 0.000000 6.055225 -8.499665 0.632778 36.725052 10.531667 -0.796829 1.831448 40.249377 0.010107 0.339834 6.384885 0.015954 0.071730 -0.174396 -0.000000 0.000000 0.000000 0.000000 0.000000 0.000000 0.000000 
0.626517 17.049897 -0.869275 -49.352997 85.777155 -50.438793 -2.677233 0.034742 -1.875701 -0.844303 0.173242 -2.576850 -3.960571 0.100262 3.161889 9.191628 -13.722235 -10.749335 -0.557016 0.004933 -0.826423 0.000000 0.000000 0.000000 -5.987925 28.896777 1.487199 -79.080924 19.522151 -11.909077 -4.179172 -9.997367 -0.013391 -1.748585 6.315010 -0.092375 -0.097937 -0.074833 -0.000000 0.000000 0.000000 0.000000 0.000000 0.000000 0.000000 6.211500 -8.651421 0.620020 37.356737 10.053772 -0.824220 1.868190 40.309031 0.010304 0.277577 6.437519 0.012365 0.074490 -0.171966 -0.000000 0.000000 0.000000 0.000000 0.000000 0.000000 0.000000 
0.769543 17.043196 -0.908119 -57.476648 86.060075 -58.571052 -2.686371 -0.138472 -1.710982 -0.844803 0.003985 -2.557398 -3.990892 -0.067916 3.115416 9.241965 -13.807247 -10.747772 -0.596750 0.001851 -0.826342 0.000000 0.000000 0.000000 -5.934067 28.412748 1.475370 -78.699201 18.648594 -11.518190 -4.143956 -10.130333 -0.012405 -1.392742 6.069957 -0.069547 -0.098511 -0.070024 -0.000000 0.000000 0.000000 0.000000 0.000000 0.000000 0.000000 6.378998 -8.806771 0.604432 37.997999 9.557087 -0.819041 1.907971 40.345383 0.010542 0.236063 6.491200 0.009875 0.076994 -0.169088 -0.000000 0.000000 0.000000 0.000000 0.000000 0.000000 0.000000 
0.911955 17.038439 -0.949842 -66.165202 86.257195 -67.267435 -2.667684 -0.299890 -1.559243 -0.840240 -0.155664 -2.539086 -4.025050 -0.226590 3.073865 9.283937 -13.894714 -10.733633 -0.642281 -0.001934 -0.822585 0.000000 0.000000 0.000000 -5.897197 27.938888 1.453220 -78.280100 17.725003 -11.088948 -4.108118 -10.303150 -0.011456 -1.026498 5.821931 -0.047821 -0.099090 -0.065187 -0.000000 0.000000 0.000000 0.000000 0.000000 0.000000 0.000000 6.565642 -8.965898 0.585817 38.642306 9.060086 -0.778931 1.951398 40.341734 0.010815 0.215604 6.543661 0.008586 0.079257 -0.165729 -0.000000 0.000000 0.000000 0.000000 0.000000 0.000000 0.000000 
1.054096 17.035938 -0.994454 -74.534098 86.366291 -75.641745 -2.624830 -0.441829 -1.429212 -0.832464 -0.297934 -2.523470 -4.064305 -0.367886 3.038673 9.319900 -13.983654 -10.705422 -0.693625 -0.006450 -0.814681 0.000000 0.000000 0.000000 -5.879578 27.487062 1.419113 -77.824262 16.757955 -10.637285 -4.073441 -10.516914 -0.010567 -0.666851 5.573563 -0.027994 -0.099673 -0.060389 -0.000000 0.000000 0.000000 0.000000 0.000000 0.000000 0.000000 6.774137 -9.124773 0.564142 39.288705 8.574905 -0.708807 1.999345 40.283923 0.011128 0.217537 6.591512 0.008695 0.081312 -0.161876 -0.000000 0.000000 0.000000 0.000000 0.000000 0.000000 0.000000 
1.196067 17.035906 -1.041828 -81.866147 86.398125 -82.971368 -2.547941 -0.559230 -1.330381 -0.820445 -0.418697 -2.513350 -4.109675 -0.487678 3.006878 9.344951 -14.049560 -10.657956 -0.751170 -0.011831 -0.801130 0.000000 0.000000 0.000000 -5.885028 27.058378 1.374022 -77.329405 15.768481 -10.117443 -4.040037 -10.799444 -0.009766 -0.324852 5.336094 -0.010666 -0.100213 -0.055788 -0.000000 0.000000 0.000000 0.000000 0.000000 0.000000 0.000000 6.991124 -9.254373 0.538586 39.957578 8.069244 -0.650799 2.052780 40.176298 0.011485 0.253185 6.629795 0.010704 0.083086 -0.157591 -0.000000 0.000000 0.000000 0.000000 0.000000 0.000000 0.000000 
1.337849 17.038423 -1.091596 -87.919015 86.376436 -89.015787 -2.437191 -0.654571 -1.260861 -0.804428 -0.520425 -2.507325 -4.161231 -0.588248 2.982164 9.365105 -14.111270 -10.595693 -0.813788 -0.017895 -0.783273 0.000000 0.000000 0.000000 -5.905711 26.660699 1.318063 -76.801453 14.747091 -9.590866 -4.010224 -11.127405 -0.009043 -0.016561 5.096857 0.003763 -0.100769 -0.051250 -0.000000 0.000000 0.000000 0.000000 0.000000 0.000000 0.000000 7.225573 -9.376856 0.508732 40.642669 7.582560 -0.592652 2.111744 39.996954 0.011861 0.309823 6.655619 0.014013 0.084750 -0.152862 -0.000000 0.000000 0.000000 0.000000 0.000000 0.000000 0.000000 
1.479383 17.043393 -1.143380 -92.861194 86.319314 -93.939619 -2.290174 -0.733619 -1.221662 -0.783396 -0.609123 -2.505752 -4.217855 -0.675654 2.963281 9.377870 -14.162784 -10.518632 -0.880676 -0.024572 -0.761163 0.000000 0.000000 0.000000 -5.937394 26.288531 1.253819 -76.242990 13.704499 -9.049038 -3.984524 -11.512639 -0.008395 0.250394 4.855764 0.014991 -0.101365 -0.046762 -0.000000 0.000000 0.000000 0.000000 0.000000 0.000000 0.000000 7.468466 -9.488384 0.473558 41.358244 7.105549 -0.557246 2.176313 39.744172 0.012244 0.385590 6.666513 0.018520 0.086340 -0.147760 -0.000000 0.000000 0.000000 0.000000 0.000000 0.000000 0.000000 
1.620448 17.050666 -1.196715 -97.040225 86.240062 -98.089962 -2.113144 -0.803485 -1.209060 -0.757886 -0.691432 -2.507797 -4.278190 -0.756531 2.949671 9.383699 -14.209607 -10.429609 -0.950699 -0.031706 -0.735680 0.000000 0.000000 0.000000 -5.972600 25.932980 1.183710 -75.659392 12.646902 -8.512975 -3.963885 -11.957345 -0.007810 0.468667 4.606096 0.023120 -0.102049 -0.042245 -0.000000 0.000000 0.000000 0.000000 0.000000 0.000000 0.000000 7.716617 -9.597855 0.433025 42.111483 6.643897 -0.556265 2.246284 39.414305 0.012613 0.474955 6.658416 0.023627 0.087926 -0.142349 -0.000000 0.000000 0.000000 0.000000 0.000000 0.000000 0.000000 
1.760811 17.059879 -1.251132 -100.875872 86.144083 -101.884382 -1.911906 -0.871583 -1.220358 -0.728206 -0.774351 -2.513518 -4.340279 -0.837975 2.938426 9.377372 -14.235387 -10.328441 -1.022882 -0.039206 -0.706849 0.000000 0.000000 0.000000 -6.000843 25.586160 1.112350 -75.054183 11.583083 -7.947558 -3.947632 -12.473979 -0.007277 0.643996 4.348869 0.028652 -0.102881 -0.037682 -0.000000 0.000000 0.000000 0.000000 0.000000 0.000000 0.000000 7.953952 -9.690214 0.386031 42.923931 6.164710 -0.625427 2.320983 39.018960 0.012961 0.577586 6.633370 0.029532 0.089475 -0.136786 -0.000000 0.000000 0.000000 0.000000 0.000000 0.000000 0.000000 
